<svg width="436" height="369" viewBox="0 0 436 369" fill="none" xmlns="http://www.w3.org/2000/svg">
<path fill-rule="evenodd" clip-rule="evenodd" d="M410.118 198.52L411.344 200.929L412.486 203.375L413.542 205.855L414.51 208.368L415.388 210.911L416.175 213.481L416.871 216.074L417.475 218.689L417.987 221.322L418.407 223.97L418.733 226.63L418.967 229.299L419.106 231.974L419.152 234.654L419.104 237.333L418.961 240.01L418.725 242.681L418.394 245.344L417.97 247.995L417.452 250.632L416.841 253.252L416.138 255.851L415.343 258.427L414.457 260.977L413.481 263.498L412.416 265.987L411.264 268.441L410.025 270.859L408.701 273.236L407.292 275.57L405.802 277.859L404.23 280.1L402.58 282.291L400.853 284.43L399.052 286.513L397.18 288.54L395.239 290.508L393.232 292.416L391.162 294.262L389.034 296.045L386.851 297.764L384.615 299.417L382.333 301.004L380.006 302.525L377.64 303.979L375.238 305.366L372.804 306.687L370.344 307.942L367.861 309.131L365.36 310.255L362.844 311.316L360.318 312.315L357.786 313.254L355.253 314.133L352.721 314.955L350.196 315.722L347.68 316.437L345.178 317.101L342.693 317.718L340.228 318.29L337.786 318.82L335.371 319.31L332.984 319.765L330.628 320.186L328.307 320.578L326.021 320.943L323.772 321.285L321.562 321.606L319.393 321.911L317.265 322.202L315.179 322.482L313.136 322.754L311.136 323.022L309.18 323.287L307.266 323.554L305.395 323.824L303.567 324.101L301.779 324.385L300.033 324.68L298.325 324.988L296.655 325.309L295.02 325.645L293.419 325.995L291.849 326.36L290.306 326.739L288.788 327.13L287.292 327.531L285.815 327.941L284.354 328.357L282.906 328.776L281.469 329.194L280.04 329.61L278.616 330.02L277.196 330.42L275.778 330.807L274.36 331.179L272.941 331.532L271.521 331.864L270.099 332.174L268.674 332.458L267.247 332.716L265.819 332.948L264.388 333.153L262.957 333.331L261.526 333.483L260.095 333.61L258.666 333.713L257.238 333.793L255.814 333.851L254.393 333.891L252.975 333.913L251.563 333.921L250.155 333.916L248.753 333.901L247.356 333.88L245.965 333.855L244.579 333.829L243.198 333.805L241.822 333.787L240.45 333.777L239.08 333.779L237.713 333.795L236.346 333.828L234.98 333.881L233.611 333.957L232.238 334.057L230.861 334.183L229.476 334.339L228.082 334.524L226.677 334.74L225.259 334.989L223.825 335.27L222.374 335.585L220.903 335.933L219.411 336.313L217.894 336.726L216.352 337.169L214.782 337.642L213.183 338.143L211.552 338.67L209.889 339.221L208.191 339.794L206.458 340.384L204.689 340.991L202.883 341.61L201.038 342.238L199.156 342.871L197.235 343.507L195.276 344.141L193.279 344.769L191.243 345.388L189.171 345.994L187.062 346.582L184.919 347.148L182.744 347.686L180.538 348.192L178.304 348.66L176.047 349.084L173.769 349.458L171.474 349.778L169.167 350.038L166.852 350.232L164.534 350.356L162.219 350.405L159.911 350.375L157.616 350.261L155.341 350.061L153.09 349.77L150.869 349.387L148.685 348.909L146.543 348.333L144.449 347.659L142.41 346.886L140.431 346.012L138.518 345.037L136.677 343.962L134.914 342.788L133.231 341.516L131.635 340.149L130.128 338.69L128.714 337.142L127.395 335.51L126.173 333.798L125.048 332.012L124.022 330.156L123.094 328.237L122.263 326.26L121.528 324.232L120.886 322.159L120.334 320.047L119.869 317.903L119.486 315.734L119.181 313.545L118.948 311.343L118.783 309.133L118.678 306.922L118.627 304.714L118.623 302.515L118.66 300.328L118.73 298.16L118.825 296.012L118.939 293.888L119.063 291.792L119.191 289.725L119.314 287.688L119.427 285.685L119.521 283.714L119.592 281.776L119.631 279.872L119.635 277.999L119.596 276.158L119.512 274.346L119.376 272.562L119.187 270.803L118.94 269.066L118.633 267.349L118.265 265.649L117.834 263.962L117.34 262.284L116.783 260.612L116.164 258.943L115.483 257.272L114.745 255.596L113.95 253.912L113.102 252.216L112.204 250.504L111.26 248.774L110.272 247.023L109.245 245.247L108.182 243.445L107.088 241.614L105.966 239.751L104.822 237.856L103.659 235.926L102.482 233.96L101.296 231.956L100.106 229.915L98.9167 227.834L97.7323 225.714L96.5577 223.554L95.3978 221.354L94.257 219.115L93.1397 216.837L92.0501 214.52L90.9921 212.166L89.9697 209.775L88.9863 207.348L88.0453 204.887L87.1502 202.393L86.304 199.868L85.5099 197.313L84.7707 194.73L84.0893 192.121L83.468 189.488L82.9093 186.833L82.4153 184.158L81.988 181.466L81.629 178.758L81.3399 176.037L81.122 173.306L80.9762 170.566L80.9036 167.82L80.9046 165.07L80.9797 162.318L81.1292 159.567L81.353 156.818L81.651 154.073L82.0229 151.335L82.4682 148.605L82.9862 145.886L83.5763 143.178L84.2374 140.484L84.9687 137.804L85.769 135.141L86.6373 132.496L87.5723 129.87L88.5728 127.264L89.6375 124.68L90.7652 122.118L91.9545 119.579L93.2043 117.065L94.5132 114.576L95.8801 112.114L97.3037 109.679L98.783 107.272L100.317 104.895L101.904 102.547L103.544 100.231L105.235 97.947L106.977 95.6961L108.769 93.4797L110.61 91.2989L112.5 89.1551L114.437 87.0495L116.421 84.9836L118.451 82.9589L120.527 80.9766L122.647 79.0376L124.81 77.1425L127.015 75.2915L129.259 73.4847L131.541 71.7218L133.859 70.0025L136.212 68.3261L138.598 66.6918L141.014 65.0989L143.46 63.5464L145.934 62.0333L148.434 60.5585L150.96 59.1212L153.509 57.7202L156.081 56.3549L158.675 55.0243L161.29 53.7278L163.926 52.4648L166.58 51.2351L169.254 50.0384L171.947 48.8747L174.658 47.7443L177.388 46.6477L180.135 45.5856L182.9 44.5592L185.683 43.5698L188.483 42.6189L191.3 41.7085L194.135 40.8405L196.986 40.0174L199.854 39.2416L202.738 38.5158L205.637 37.8429L208.55 37.2259L211.478 36.6678L214.418 36.1718L217.369 35.741L220.331 35.3787L223.3 35.0879L226.277 34.8717L229.258 34.7331L232.242 34.675L235.227 34.7L238.209 34.8106L241.187 35.0091L244.158 35.2976L247.119 35.6778L250.067 36.1512L252.999 36.7189L255.912 37.3819L258.804 38.1407L261.67 38.9954L264.509 39.946L267.316 40.9919L270.09 42.1324L272.827 43.3661L275.524 44.6916L278.179 46.1071L280.788 47.6105L283.351 49.1992L285.864 50.8705L288.325 52.6216L290.732 54.4491L293.084 56.3497L295.379 58.3197L297.616 60.3553L299.793 62.4528L301.911 64.6079L303.968 66.8167L305.963 69.0749L307.897 71.3783L309.77 73.7223L311.583 76.1021L313.335 78.5122L315.03 80.9474L316.667 83.4021L318.251 85.8707L319.782 88.3476L321.264 90.8273L322.701 93.3044L324.094 95.7739L325.448 98.2306L326.767 100.67L328.055 103.088L329.316 105.479L330.554 107.841L331.773 110.17L332.978 112.463L334.175 114.716L335.366 116.928L336.558 119.096L337.756 121.219L338.963 123.294L340.185 125.321L341.427 127.299L342.694 129.227L343.989 131.106L345.316 132.938L346.678 134.723L348.079 136.464L349.521 138.163L351.005 139.824L352.534 141.449L354.107 143.042L355.726 144.608L357.389 146.15L359.097 147.673L360.849 149.181L362.642 150.679L364.474 152.173L366.342 153.666L368.245 155.163L370.177 156.669L372.134 158.189L374.114 159.727L376.11 161.287L378.119 162.872L380.134 164.488L382.151 166.137L384.164 167.822L386.167 169.546L388.155 171.312L390.122 173.122L392.062 174.977L393.969 176.878L395.838 178.828L397.664 180.826L399.441 182.873L401.164 184.968L402.828 187.112L404.429 189.304L405.963 191.542L407.424 193.825L408.81 196.152L410.118 198.52Z" fill="url(#paint0_linear_136_8)"/>
<ellipse cx="53" cy="272.5" rx="53" ry="52.5" fill="#2A6271"/>
<defs>
<linearGradient id="paint0_linear_136_8" x1="190.734" y1="-279.664" x2="-102.486" y2="-391.635" gradientUnits="userSpaceOnUse">
<stop stop-color="#EAD3FF"/>
<stop offset="1" stop-color="#85B812"/>
</linearGradient>
</defs>
</svg>
