<svg width="307" height="284" viewBox="0 0 307 284" fill="none" xmlns="http://www.w3.org/2000/svg">
<path fill-rule="evenodd" clip-rule="evenodd" d="M269.883 160.039L271.003 161.168L272.142 162.323L273.297 163.503L274.465 164.71L275.646 165.944L276.837 167.205L278.035 168.495L279.239 169.813L280.447 171.16L281.656 172.537L282.864 173.942L284.069 175.378L285.269 176.842L286.462 178.336L287.646 179.86L288.819 181.413L289.978 182.994L291.123 184.604L292.251 186.243L293.36 187.909L294.448 189.602L295.512 191.322L296.551 193.067L297.561 194.837L298.539 196.631L299.483 198.446L300.387 200.282L301.251 202.136L302.068 204.007L302.836 205.892L303.551 207.789L304.209 209.695L304.805 211.608L305.337 213.525L305.801 215.442L306.194 217.356L306.513 219.265L306.755 221.165L306.918 223.053L307 224.925L307 226.779L306.916 228.611L306.747 230.418L306.494 232.198L306.156 233.947L305.734 235.663L305.228 237.344L304.639 238.987L303.97 240.59L303.222 242.152L302.397 243.67L301.497 245.144L300.526 246.572L299.485 247.954L298.379 249.288L297.211 250.574L295.984 251.813L294.701 253.004L293.367 254.148L291.985 255.244L290.558 256.294L289.091 257.299L287.588 258.26L286.051 259.177L284.486 260.053L282.895 260.888L281.281 261.685L279.649 262.445L278.002 263.17L276.342 263.862L274.672 264.523L272.996 265.155L271.316 265.76L269.635 266.34L267.954 266.897L266.276 267.432L264.602 267.949L262.934 268.448L261.274 268.932L259.623 269.402L257.982 269.86L256.351 270.307L254.732 270.745L253.126 271.176L251.531 271.599L249.95 272.017L248.381 272.431L246.826 272.84L245.282 273.246L243.752 273.649L242.233 274.051L240.726 274.45L239.231 274.847L237.746 275.243L236.271 275.636L234.806 276.028L233.349 276.418L231.901 276.805L230.46 277.189L229.026 277.569L227.598 277.946L226.175 278.318L224.758 278.685L223.344 279.047L221.935 279.402L220.529 279.749L219.125 280.09L217.724 280.421L216.324 280.744L214.926 281.057L213.53 281.359L212.134 281.649L210.739 281.928L209.344 282.194L207.949 282.446L206.554 282.683L205.159 282.905L203.764 283.111L202.369 283.3L200.972 283.469L199.576 283.618L198.178 283.745L196.779 283.849L195.38 283.927L193.98 283.978L192.58 284L191.179 283.992L189.779 283.953L188.379 283.881L186.981 283.774L185.585 283.632L184.191 283.455L182.801 283.24L181.414 282.989L180.033 282.699L178.657 282.372L177.288 282.008L175.927 281.605L174.574 281.166L173.231 280.689L171.898 280.177L170.576 279.628L169.266 279.046L167.97 278.429L166.686 277.78L165.418 277.1L164.164 276.391L162.926 275.653L161.704 274.889L160.499 274.101L159.312 273.29L158.141 272.459L156.988 271.61L155.853 270.746L154.736 269.869L153.637 268.981L152.555 268.086L151.489 267.186L150.441 266.284L149.408 265.382L148.391 264.485L147.388 263.594L146.399 262.713L145.421 261.844L144.455 260.991L143.498 260.157L142.55 259.343L141.608 258.554L140.671 257.79L139.737 257.056L138.805 256.354L137.871 255.685L136.935 255.051L135.995 254.455L135.047 253.899L134.09 253.383L133.122 252.91L132.14 252.479L131.143 252.093L130.128 251.752L129.093 251.456L128.036 251.205L126.955 251L125.847 250.839L124.712 250.724L123.547 250.652L122.351 250.622L121.121 250.635L119.857 250.687L118.557 250.778L117.221 250.906L115.846 251.069L114.432 251.264L112.979 251.489L111.485 251.742L109.951 252.02L108.376 252.32L106.76 252.64L105.104 252.977L103.406 253.327L101.669 253.688L99.8921 254.056L98.0765 254.429L96.223 254.803L94.3327 255.175L92.4067 255.542L90.4464 255.901L88.4531 256.249L86.4286 256.583L84.3744 256.9L82.2923 257.197L80.1843 257.471L78.0524 257.72L75.8988 257.941L73.7257 258.131L71.5358 258.288L69.3314 258.409L67.1153 258.492L64.8904 258.534L62.6596 258.533L60.4261 258.487L58.1931 258.393L55.9642 258.25L53.7429 258.055L51.533 257.806L49.3382 257.502L47.1621 257.141L45.0082 256.722L42.8797 256.244L40.7798 255.707L38.7114 255.11L36.6775 254.453L34.6808 253.736L32.7238 252.959L30.8089 252.124L28.9387 251.23L27.1152 250.278L25.3405 249.27L23.6166 248.206L21.9454 247.087L20.3285 245.914L18.7676 244.69L17.2641 243.415L15.8194 242.092L14.4347 240.721L13.1111 239.304L11.8495 237.843L10.6508 236.34L9.51562 234.797L8.44463 233.216L7.43824 231.598L6.49675 229.946L5.62036 228.262L4.80912 226.547L4.06296 224.804L3.38168 223.035L2.76498 221.242L2.21242 219.427L1.72344 217.592L1.29738 215.739L0.933484 213.87L0.630865 211.988L0.388558 210.093L0.205502 208.188L0.080551 206.275L0.0124819 204.356L0 202.432L0.0417475 200.506L0.136311 198.578L0.282232 196.65L0.478011 194.725L0.722122 192.802L1.01302 190.885L1.34914 188.974L1.72892 187.07L2.15081 185.174L2.61329 183.288L3.11482 181.413L3.65395 179.55L4.22924 177.699L4.83932 175.861L5.48285 174.038L6.15861 172.23L6.8654 170.437L7.60214 168.66L8.36781 166.9L9.16151 165.158L9.9824 163.433L10.8298 161.726L11.703 160.039L12.6015 158.37L13.5248 156.721L14.4727 155.092L15.4448 153.484L16.441 151.896L17.4611 150.33L18.5051 148.785L19.5729 147.263L20.6645 145.763L21.7799 144.286L22.9191 142.833L24.0821 141.404L25.2686 139.999L26.4783 138.62L27.711 137.265L28.966 135.937L30.2424 134.634L31.5392 133.359L32.8552 132.109L34.1889 130.887L35.5384 129.691L36.9015 128.522L38.2754 127.38L39.6569 126.262L41.0427 125.17L42.4288 124.101L43.8112 123.054L45.1856 122.028L46.5474 121.021L47.892 120.03L49.2146 119.054L50.5103 118.09L51.7747 117.134L53.0032 116.184L54.1917 115.237L55.336 114.29L56.4325 113.338L57.4777 112.38L58.4686 111.41L59.4022 110.426L60.2763 109.425L61.0887 108.401L61.8377 107.353L62.5222 106.276L63.1413 105.168L63.6946 104.024L64.1821 102.842L64.6043 101.619L64.9619 100.352L65.2564 99.0381L65.4893 97.6759L65.6629 96.2629L65.7797 94.7976L65.8424 93.2783L65.8544 91.704L65.8192 90.074L65.7407 88.3878L65.6231 86.6454L65.4708 84.8469L65.2885 82.9932L65.0812 81.0852L64.8538 79.1244L64.6117 77.1124L64.36 75.0516L64.1042 72.9443L63.8498 70.7935L63.6022 68.6023L63.3668 66.3743L63.1491 64.1132L62.9543 61.8232L62.7876 59.5087L62.6541 57.1742L62.5585 54.8246L62.5056 52.4649L62.4997 50.1003L62.5451 47.7361L62.6456 45.3778L62.8048 43.0307L63.0261 40.7005L63.3122 38.3927L63.666 36.1129L64.0896 33.8664L64.5849 31.6587L65.1534 29.4951L65.7964 27.3807L66.5146 25.3204L67.3084 23.319L68.178 21.3811L69.123 19.5109L70.1428 17.7125L71.2364 15.9895L72.4026 14.3454L73.6397 12.7832L74.9459 11.3058L76.319 9.91543L77.7566 8.6142L79.2561 7.40375L80.8145 6.28535L82.4289 5.25991L84.0961 4.32795L85.8127 3.48961L87.5753 2.74467L89.3802 2.09252L91.2238 1.53219L93.1026 1.06236L95.0126 0.681338L96.9503 0.38711L98.9119 0.177319L100.894 0.0492825L102.892 0L104.903 0.0261597L106.924 0.124144L108.951 0.290034L110.981 0.519611L113.011 0.808399L115.037 1.15176L117.058 1.54489L119.069 1.98275L121.07 2.46013L123.057 2.97165L125.029 3.51188L126.984 4.07536L128.92 4.6567L130.836 5.2506L132.732 5.85198L134.606 6.45601L136.458 7.05818L138.288 7.65428L140.097 8.24024L141.883 8.812L143.648 9.3655L145.391 9.89672L147.115 10.4017L148.819 10.8766L150.505 11.3179L152.173 11.7222L153.826 12.0864L155.465 12.4076L157.091 12.6835L158.706 12.912L160.312 13.0913L161.911 13.2202L163.505 13.2978L165.096 13.3237L166.686 13.2978L168.278 13.2206L169.872 13.0927L171.472 12.9156L173.078 12.6907L174.694 12.4201L176.32 12.1063L177.958 11.7519L179.61 11.3601L181.277 10.9343L182.96 10.4781L184.66 9.99554L186.377 9.49082L188.113 8.96833L189.868 8.43266L191.642 7.88855L193.434 7.34086L195.245 6.79455L197.074 6.25463L198.919 5.72614L200.782 5.21414L202.659 4.72365L204.55 4.25962L206.452 3.82696L208.366 3.43043L210.287 3.07466L212.215 2.76416L214.147 2.5032L216.08 2.29591L218.012 2.14615L219.941 2.05756L221.863 2.03354L223.776 2.0772L225.676 2.19137L227.561 2.37861L229.428 2.64115L231.274 2.98095L233.095 3.39963L234.889 3.89851L236.652 4.47859L238.383 5.14057L240.077 5.88483L241.732 6.71144L243.346 7.62018L244.915 8.61053L246.437 9.68168L247.91 10.8326L249.332 12.0618L250.701 13.3679L252.013 14.7489L253.269 16.2029L254.466 17.7274L255.603 19.3201L256.678 20.9782L257.691 22.699L258.64 24.4794L259.525 26.3162L260.346 28.2062L261.102 30.1459L261.794 32.1317L262.421 34.1601L262.984 36.2272L263.483 38.3291L263.92 40.4619L264.296 42.6215L264.613 44.8037L264.871 47.0043L265.074 49.2189L265.224 51.4432L265.322 53.6733L265.372 55.9053L265.375 58.1359L265.334 60.362L265.251 62.5807L265.128 64.7893L264.966 66.9855L264.769 69.1671L264.537 71.3321L264.273 73.4785L263.979 75.6048L263.657 77.7092L263.307 79.7904L262.934 81.8468L262.538 83.877L262.122 85.8798L261.688 87.8537L261.238 89.7976L260.775 91.7103L260.302 93.5908L259.82 95.4381L259.333 97.2514L258.842 99.0301L258.35 100.774L257.86 102.481L257.373 104.153L256.892 105.789L256.419 107.388L255.956 108.951L255.505 110.478L255.069 111.969L254.649 113.425L254.247 114.846L253.865 116.232L253.505 117.585L253.168 118.904L252.856 120.191L252.57 121.446L252.313 122.671L252.085 123.867L251.887 125.033L251.722 126.173L251.589 127.287L251.491 128.375L251.428 129.44L251.402 130.483L251.413 131.504L251.461 132.506L251.549 133.49L251.675 134.458L251.842 135.41L252.049 136.349L252.297 137.275L252.586 138.192L252.917 139.099L253.289 139.999L253.702 140.894L254.158 141.784L254.654 142.673L255.192 143.56L255.77 144.449L256.388 145.339L257.047 146.235L257.744 147.135L258.48 148.044L259.253 148.961L260.062 149.888L260.907 150.827L261.786 151.78L262.698 152.747L263.642 153.731L264.616 154.732L265.618 155.751L266.648 156.79L267.703 157.851L268.782 158.933L269.883 160.039Z" fill="#EB4C0B"/>
</svg>
